<?xml version="1.0" standalone="no"?>
<!DOCTYPE svg PUBLIC "-//W3C//DTD SVG 20010904//EN"
 "http://www.w3.org/TR/2001/REC-SVG-20010904/DTD/svg10.dtd">
<svg version="1.0" xmlns="http://www.w3.org/2000/svg"
 width="256.000000pt" height="256.000000pt" viewBox="0 0 256.000000 256.000000"
 preserveAspectRatio="xMidYMid meet">
<metadata>
Created by potrace 1.11, written by Peter Selinger 2001-2013
</metadata>
<g transform="translate(0.000000,256.000000) scale(0.100000,-0.100000)"
fill="#000000" stroke="none">
<path d="M1194 2272 c-18 -9 -54 -36 -80 -58 -27 -23 -164 -137 -304 -254
-140 -116 -266 -222 -280 -233 -14 -12 -133 -112 -265 -221 -132 -110 -243
-204 -247 -210 -16 -23 -6 -45 50 -112 66 -79 99 -91 142 -52 14 13 160 136
325 273 165 137 302 252 305 255 3 3 84 71 180 150 96 80 189 157 205 172 17
16 38 31 47 34 12 4 122 -82 375 -293 428 -356 403 -336 417 -348 6 -6 63 -53
126 -105 63 -52 117 -97 120 -100 28 -30 77 -60 98 -60 21 0 39 15 85 71 31
39 57 81 57 93 0 16 -46 60 -180 170 l-179 148 -3 339 c-3 289 -5 341 -18 349
-21 13 -336 13 -361 0 -18 -10 -19 -23 -19 -175 0 -91 -3 -165 -8 -165 -7 0
-89 66 -217 175 -27 24 -77 66 -110 94 -33 28 -74 58 -92 66 -42 20 -130 19
-169 -3z"/>
<path d="M1110 1744 c-91 -75 -183 -151 -205 -169 -50 -41 -243 -201 -270
-223 -11 -10 -74 -62 -140 -116 l-120 -99 -1 -381 c0 -210 4 -396 8 -414 6
-21 21 -40 41 -52 30 -19 53 -20 345 -20 l312 0 0 305 0 304 199 0 c143 -1
201 -4 203 -12 2 -7 4 -144 3 -305 l0 -293 322 3 323 3 27 28 28 27 3 403 3
402 -158 130 c-86 72 -236 195 -333 274 -96 79 -188 155 -205 170 -16 14 -52
44 -80 66 -27 22 -67 54 -88 72 -20 18 -40 33 -45 33 -4 0 -81 -61 -172 -136z"/>
</g>
</svg>
